<svg width="178" height="68" xmlns="http://www.w3.org/2000/svg" fill-rule="evenodd">
 <g>
  <title>Layer 1</title>
  <g stroke-width="0" id="svg_1">
   <path id="svg_2" d="m46.21091,43.45238l-0.35792,-17.255l3.2213,17.255l5.47688,0l3.31584,-17.255l-0.3039,17.255l4.47065,0l0,-20.40741l-7.05714,0l-3.01195,16.08963l-2.86338,-16.08963l-7.17195,0l0,20.40741l4.28156,0l0.00001,0zm25.17611,-18.13037l1.09403,9.58611l-2.24883,0l1.15481,-9.58611l-0.00001,0zm-2.18805,18.13037l0.57403,-5.22l3.13351,0l0.60779,5.22l5.04468,0l-3.24831,-20.40741l-7.90805,0l-3.16052,20.40741l4.95688,0l-0.00001,0zm17.80831,-16.61056c0.68208,0 1.13455,0.09667 1.3574,0.29c0.22961,0.21481 0.35117,0.60148 0.35117,1.15463l0,3.36185c0,0.54778 -0.12156,0.9237 -0.35117,1.13315c-0.22286,0.21481 -0.67532,0.31685 -1.3574,0.31685l-1.28312,0l0,-6.25648l1.28312,0zm1.70857,16.61056l4.9839,0l0,-5.33278c0,-2.06222 -1.1413,-3.24907 -3.39688,-3.56056c1.20208,-0.20407 2.07325,-0.62296 2.6,-1.23519c0.53351,-0.60685 0.79688,-1.51444 0.79688,-2.7013l0,-2.32537c0,-2.00315 -0.53351,-3.38333 -1.57351,-4.14593c-1.06026,-0.73574 -3.19429,-1.1063 -6.40208,-1.1063l-4.99065,0l0,20.40741l4.99065,0l0,-6.94926l0.88468,0c0.81039,0 1.3574,0.12889 1.64104,0.3813c0.3039,0.26315 0.46597,0.74648 0.46597,1.44463l0,5.12333l0,0.00002zm14.4587,0l0,-16.61056l3.34961,0l0,-3.79685l-11.68987,0l0,3.79685l3.34961,0l0,16.61056l4.99065,0zm4.48416,-7.12111l0,2.2663c0,1.87963 0.39169,3.15778 1.17507,3.8237c0.78338,0.68741 2.26234,1.03111 4.43688,1.03111l1.33714,0c1.96519,0 3.36987,-0.36519 4.22078,-1.09019c0.86442,-0.74111 1.29662,-1.94407 1.29662,-3.60352l0,-2.72278c0,-1.42315 -0.25662,-2.44352 -0.76312,-3.06111c-0.51325,-0.62296 -1.4587,-1.12778 -2.83636,-1.51444c-0.16883,-0.03759 -0.35117,-0.08056 -0.53351,-0.13963c-0.19584,-0.05907 -0.4187,-0.11278 -0.65506,-0.17185c-1.79636,-0.39741 -2.68779,-1.09556 -2.68779,-2.08907l0,-1.32111c0,-0.53167 0.07429,-0.89148 0.24987,-1.08481c0.16883,-0.18796 0.49299,-0.28463 0.97922,-0.28463c0.49974,0 0.84416,0.10741 1.01299,0.31685c0.16208,0.20944 0.24987,0.62833 0.24987,1.26204l0,1.26741l4.48416,0l0,-1.53056c0,-1.05259 -0.06078,-1.8313 -0.18234,-2.32c-0.12831,-0.46722 -0.35792,-0.85926 -0.70234,-1.18685c-0.43896,-0.39204 -1.01974,-0.68204 -1.75584,-0.85926c-0.72935,-0.17722 -1.68156,-0.27389 -2.84987,-0.27389l-1.47221,0c-1.8639,0 -3.16052,0.34907 -3.89662,1.03648c-0.7361,0.71426 -1.10753,1.94407 -1.10753,3.6787l0,1.82593c0,1.40167 0.24987,2.41667 0.76312,3.05574c0.49974,0.64981 1.44519,1.15463 2.82286,1.50907c0.16208,0.04833 0.35117,0.0913 0.55377,0.13426c0.2026,0.04833 0.42545,0.09667 0.69558,0.15037c1.19532,0.23093 1.94494,0.5263 2.24883,0.89685c0.14182,0.15574 0.24312,0.33296 0.3039,0.54241c0.06078,0.20407 0.09455,0.51556 0.09455,0.95056l0,1.36944c0,0.56389 -0.09455,0.95056 -0.26338,1.15463c-0.17558,0.20944 -0.49974,0.30611 -0.98597,0.30611c-0.45247,0 -0.77662,-0.10204 -0.96571,-0.31685c-0.18909,-0.21481 -0.27688,-0.58 -0.27688,-1.09019l0,-1.91722l-4.99065,0l-0.00003,0zm19.94909,7.12111l0,-8.54426l2.49195,0l0,8.54426l4.9839,0l0,-20.40741l-4.9839,0l0,8.0663l-2.49195,0l0,-8.0663l-4.99065,0l0,20.40741l4.99065,0zm17.95013,-5.13944c0,0.56389 -0.08779,0.93444 -0.25662,1.09556c-0.15532,0.16648 -0.48623,0.24704 -0.97922,0.24704c-0.49299,0 -0.83065,-0.08056 -0.99948,-0.24704c-0.17558,-0.17722 -0.25662,-0.54778 -0.25662,-1.09556l0,-10.12852c0,-0.5263 0.08104,-0.88074 0.25662,-1.0687c0.16883,-0.17722 0.50649,-0.27389 0.99948,-0.27389c0.52,0 0.8374,0.09667 0.97922,0.27389c0.16883,0.15037 0.25662,0.50481 0.25662,1.0687l0,10.12852zm4.9839,-9.65593c0,-1.28889 -0.07429,-2.25019 -0.22961,-2.90537c-0.14182,-0.54778 -0.42545,-1.05259 -0.83065,-1.51444c-0.45922,-0.45111 -1.01974,-0.76259 -1.68831,-0.93444c-0.70909,-0.16648 -1.8639,-0.25778 -3.45091,-0.25778c-1.62078,0 -2.78234,0.0913 -3.49143,0.25778c-0.68883,0.17185 -1.24935,0.48333 -1.68156,0.93444c-0.41195,0.46185 -0.70234,0.96667 -0.85766,1.51444c-0.15532,0.65519 -0.23636,1.61648 -0.23636,2.90537l0,9.21019c0,1.35333 0.08779,2.32 0.26338,2.91074c0.17558,0.59074 0.45247,1.09019 0.83065,1.5037c0.2161,0.2363 0.45247,0.42963 0.70909,0.58c0.25662,0.145 0.54026,0.27389 0.85766,0.35981c0.33091,0.09667 0.79013,0.15574 1.38442,0.18796c0.59429,0.02685 1.33039,0.04296 2.22182,0.04296c0.87792,0 1.62078,-0.01611 2.20831,-0.04296c0.59429,-0.03222 1.04675,-0.0913 1.36416,-0.18796c0.66182,-0.20407 1.18857,-0.51556 1.56675,-0.93981c0.39169,-0.37056 0.66182,-0.87 0.83065,-1.47685c0.07429,-0.30611 0.12831,-0.69815 0.16883,-1.18685c0.04052,-0.48333 0.06078,-1.0687 0.06078,-1.75074l0,-9.21019l-0.00001,0zm8.78597,9.10278c2.54597,0 4.29507,-0.3813 5.26078,-1.14389c0.9387,-0.76259 1.41143,-2.14278 1.41143,-4.14593l0,-4.13519c0,-2.03537 -0.49974,-3.42093 -1.47896,-4.14593c-0.96571,-0.75722 -2.96468,-1.14389 -6.00364,-1.14389l-4.9839,0l0,20.40741l4.9839,0l0,-5.69259l0.81039,0l0,0.00001zm1.68831,-5.25759c0,0.57463 -0.1013,0.95593 -0.29714,1.14926c-0.15532,0.20407 -0.53351,0.31148 -1.11429,0.31148l-1.08727,0l0,-7.12111l1.08727,0c0.56052,0 0.93195,0.09667 1.11429,0.29c0.19584,0.19333 0.29714,0.56926 0.29714,1.13852l0,4.23185zm-142.23689,5.4563l0,3.45315c0,2.87315 0.56727,4.81722 1.72208,5.83759c1.1413,1.05259 3.30234,1.57352 6.48312,1.57352l1.95844,0c2.87013,0 4.92312,-0.55315 6.16571,-1.66481c1.26961,-1.13315 1.90442,-2.96444 1.90442,-5.49926l0,-4.15667c0,-2.16963 -0.37818,-3.73241 -1.11429,-4.67222c-0.75636,-0.95056 -2.13403,-1.71852 -4.15325,-2.30926c-0.24987,-0.0537 -0.51325,-0.12352 -0.78338,-0.21481c-0.28364,-0.0913 -0.60779,-0.17185 -0.95896,-0.25778c-2.62026,-0.61222 -3.93039,-1.67556 -3.93039,-3.19537l0,-2.01389c0,-0.8163 0.11481,-1.3587 0.36468,-1.65407c0.24987,-0.29 0.72935,-0.44037 1.43844,-0.44037c0.72935,0 1.22909,0.17185 1.47896,0.4887c0.23636,0.31685 0.36468,0.9613 0.36468,1.92259l0,1.93333l6.56416,0l0,-2.33074c0,-1.60574 -0.08779,-2.79259 -0.27013,-3.53907c-0.18234,-0.71426 -0.52675,-1.31574 -1.02649,-1.81519c-0.64156,-0.59611 -1.49247,-1.03648 -2.56623,-1.31037c-1.07377,-0.27389 -2.46494,-0.41889 -4.17351,-0.41889l-2.15429,0c-2.72156,0 -4.62597,0.53167 -5.69299,1.58426c-1.08727,1.08481 -1.62078,2.96444 -1.62078,5.61204l0,2.78722c0,2.13741 0.36468,3.68944 1.11429,4.66148c0.72935,0.99889 2.11377,1.76685 4.12623,2.30926c0.24312,0.06981 0.51325,0.13426 0.81039,0.20407c0.29714,0.06981 0.62805,0.145 1.01299,0.22556c1.75584,0.35444 2.84987,0.80556 3.29558,1.36944c0.2026,0.2363 0.35117,0.51019 0.44571,0.82704c0.08779,0.31685 0.13506,0.79481 0.13506,1.45l0,2.09444c0,0.85926 -0.13506,1.45 -0.38494,1.76685c-0.24987,0.31685 -0.72935,0.46185 -1.43844,0.46185c-0.66182,0 -1.1413,-0.16111 -1.41143,-0.4887c-0.27688,-0.32759 -0.41195,-0.88074 -0.41195,-1.66481l0,-2.91611l-7.29351,0l0.00002,0zm23.21091,7.34667l0,6.60556l-29.17403,0l0,-37.11463l29.17403,0l0,7.11574l2.8161,0l0,-9.02759c0,-1.79907 -1.82338,-3.26519 -4.0452,-3.26519l-26.70909,0c-2.23532,0 -4.05195,1.46611 -4.05195,3.26519l0,41.80297c0,1.7937 1.81662,3.26519 4.05195,3.26519l26.70909,0c2.22182,0 4.0452,-1.47148 4.0452,-3.26519l0,-9.38204l-2.8161,0l0,0l0,-0.00001z"/>
  </g>
 </g>

</svg>