<?xml version="1.0" encoding="UTF-8" standalone="yes"?>
<!-- Created with sK1/UniConvertor (http://sk1project.org/) -->
<svg xmlns="http://www.w3.org/2000/svg" xmlns:xlink="http://www.w3.org/1999/xlink"
  width="595.276pt" height="841.89pt" viewBox="0 0 595.276 841.89"
  fill-rule="evenodd">
<g>
<path style="stroke:none; fill:#211f1f" d="M 53.62 814.89L 53.09 782.76L 57.86 814.89L 65.97 814.89L 70.88 782.76L 70.43 814.89L 77.05 814.89L 77.05 776.89L 66.6 776.89L 62.14 806.85L 57.9 776.89L 47.28 776.89L 47.28 814.89L 53.62 814.89zM 90.9 781.13L 92.52 798.98L 89.19 798.98L 90.9 781.13zM 87.66 814.89L 88.51 805.17L 93.15 805.17L 94.05 814.89L 101.52 814.89L 96.71 776.89L 85 776.89L 80.32 814.89L 87.66 814.89zM 114.03 783.96C 115.04 783.96 115.71 784.14 116.04 784.5C 116.38 784.9 116.56 785.62 116.56 786.65L 116.56 792.91C 116.56 793.93 116.38 794.63 116.04 795.02C 115.71 795.42 115.04 795.61 114.03 795.61L 112.13 795.61L 112.13 783.96L 114.03 783.96zM 116.56 814.89L 123.94 814.89L 123.94 804.96C 123.94 801.12 122.25 798.91 118.91 798.33C 120.69 797.95 121.98 797.17 122.76 796.03C 123.55 794.9 123.94 793.21 123.94 791L 123.94 786.67C 123.94 782.94 123.15 780.37 121.61 778.95C 120.04 777.58 116.88 776.89 112.13 776.89L 104.74 776.89L 104.74 814.89L 112.13 814.89L 112.13 801.95L 113.44 801.95C 114.64 801.95 115.45 802.19 115.87 802.66C 116.32 803.15 116.56 804.05 116.56 805.35L 116.56 814.89zM 137.97 814.89L 137.97 783.96L 142.93 783.96L 142.93 776.89L 125.62 776.89L 125.62 783.96L 130.58 783.96L 130.58 814.89L 137.97 814.89zM 144.61 801.63L 144.61 805.85C 144.61 809.35 145.19 811.73 146.35 812.97C 147.51 814.25 149.7 814.89 152.92 814.89L 154.9 814.89C 157.81 814.89 159.89 814.21 161.15 812.86C 162.43 811.48 163.07 809.24 163.07 806.15L 163.07 801.08C 163.07 798.43 162.69 796.53 161.94 795.38C 161.18 794.22 159.78 793.28 157.74 792.56C 157.49 792.49 157.22 792.41 156.95 792.3C 156.66 792.19 156.33 792.09 155.98 791.98C 153.32 791.24 152 789.94 152 788.09L 152 785.63C 152 784.64 152.11 783.97 152.37 783.61C 152.62 783.26 153.1 783.08 153.82 783.08C 154.56 783.08 155.07 783.28 155.32 783.67C 155.56 784.06 155.69 784.84 155.69 786.02L 155.69 788.38L 162.33 788.38L 162.33 785.53C 162.33 783.57 162.24 782.12 162.06 781.21C 161.87 780.34 161.53 779.61 161.02 779C 160.37 778.27 159.51 777.73 158.42 777.4C 157.34 777.07 155.93 776.89 154.2 776.89L 152.02 776.89C 149.26 776.89 147.34 777.54 146.25 778.82C 145.16 780.15 144.61 782.44 144.61 785.67L 144.61 789.07C 144.61 791.68 144.98 793.57 145.74 794.76C 146.48 795.97 147.88 796.91 149.92 797.57C 150.16 797.66 150.44 797.74 150.74 797.82C 151.04 797.91 151.37 798 151.77 798.1C 153.54 798.53 154.65 799.08 155.1 799.77C 155.31 800.06 155.46 800.39 155.55 800.78C 155.64 801.16 155.69 801.74 155.69 802.55L 155.69 805.1C 155.69 806.15 155.55 806.87 155.3 807.25C 155.04 807.64 154.56 807.82 153.84 807.82C 153.17 807.82 152.69 807.63 152.41 807.23C 152.13 806.83 152 806.15 152 805.2L 152 801.63L 144.61 801.63zM 174.15 814.89L 174.15 798.98L 177.84 798.98L 177.84 814.89L 185.22 814.89L 185.22 776.89L 177.84 776.89L 177.84 791.91L 174.15 791.91L 174.15 776.89L 166.76 776.89L 166.76 814.89L 174.15 814.89zM 200.73 805.32C 200.73 806.37 200.6 807.06 200.35 807.36C 200.12 807.67 199.63 807.82 198.9 807.82C 198.17 807.82 197.67 807.67 197.42 807.36C 197.16 807.03 197.04 806.34 197.04 805.32L 197.04 786.46C 197.04 785.48 197.16 784.82 197.42 784.47C 197.67 784.14 198.17 783.96 198.9 783.96C 199.67 783.96 200.14 784.14 200.35 784.47C 200.6 784.75 200.73 785.41 200.73 786.46L 200.73 805.32zM 208.11 787.34C 208.11 784.94 208 783.15 207.77 781.93C 207.56 780.91 207.14 779.97 206.54 779.11C 205.86 778.27 205.03 777.69 204.04 777.37C 202.99 777.06 201.28 776.89 198.93 776.89C 196.53 776.89 194.81 777.06 193.76 777.37C 192.74 777.69 191.91 778.27 191.27 779.11C 190.66 779.97 190.23 780.91 190 781.93C 189.77 783.15 189.65 784.94 189.65 787.34L 189.65 804.49C 189.65 807.01 189.78 808.81 190.04 809.91C 190.3 811.01 190.71 811.94 191.27 812.71C 191.59 813.15 191.94 813.51 192.32 813.79C 192.7 814.06 193.12 814.3 193.59 814.46C 194.08 814.64 194.76 814.75 195.64 814.81C 196.52 814.86 197.61 814.89 198.93 814.89C 200.23 814.89 201.33 814.86 202.2 814.81C 203.08 814.75 203.75 814.64 204.22 814.46C 205.2 814.08 205.98 813.5 206.54 812.71C 207.12 812.02 207.52 811.09 207.77 809.96C 207.88 809.39 207.96 808.66 208.02 807.75C 208.08 806.85 208.11 805.76 208.11 804.49L 208.11 787.34zM 221.12 804.29C 224.89 804.29 227.48 803.58 228.91 802.16C 230.3 800.74 231 798.17 231 794.44L 231 786.74C 231 782.95 230.26 780.37 228.81 779.02C 227.38 777.61 224.42 776.89 219.92 776.89L 212.54 776.89L 212.54 814.89L 219.92 814.89L 219.92 804.29L 221.12 804.29zM 223.62 794.5C 223.62 795.57 223.47 796.28 223.18 796.64C 222.95 797.02 222.39 797.22 221.53 797.22L 219.92 797.22L 219.92 783.96L 221.53 783.96C 222.36 783.96 222.91 784.14 223.18 784.5C 223.47 784.86 223.62 785.56 223.62 786.62L 223.62 794.5zM 13 804.66L 13 811.09C 13 816.44 13.84 820.06 15.55 821.96C 17.24 823.92 20.44 824.89 25.15 824.89L 28.05 824.89C 32.3 824.89 35.34 823.86 37.18 821.79C 39.06 819.68 40 816.27 40 811.55L 40 803.81C 40 799.77 39.44 796.86 38.35 795.11C 37.23 793.34 35.19 791.91 32.2 790.81C 31.83 790.71 31.44 790.58 31.04 790.41C 30.62 790.24 30.14 790.09 29.62 789.93C 25.74 788.79 23.8 786.81 23.8 783.98L 23.8 780.23C 23.8 778.71 23.97 777.7 24.34 777.15C 24.71 776.61 25.42 776.33 26.47 776.33C 27.55 776.33 28.29 776.65 28.66 777.24C 29.01 777.83 29.2 779.03 29.2 780.82L 29.2 784.42L 38.92 784.42L 38.92 780.08C 38.92 777.09 38.79 774.88 38.52 773.49C 38.25 772.16 37.74 771.04 37 770.11C 36.05 769 34.79 768.18 33.2 767.67C 31.61 767.16 29.55 766.89 27.02 766.89L 23.83 766.89C 19.8 766.89 16.98 767.88 15.4 769.84C 13.79 771.86 13 775.36 13 780.29L 13 785.48C 13 789.46 13.54 792.35 14.65 794.16C 15.73 796.02 17.78 797.45 20.76 798.46C 21.12 798.59 21.52 798.71 21.96 798.84C 22.4 798.97 22.89 799.11 23.46 799.26C 26.06 799.92 27.68 800.76 28.34 801.81C 28.64 802.25 28.86 802.76 29 803.35C 29.13 803.94 29.2 804.83 29.2 806.05L 29.2 809.95C 29.2 811.55 29 812.65 28.63 813.24C 28.26 813.83 27.55 814.1 26.5 814.1C 25.52 814.1 24.81 813.8 24.41 813.19C 24 812.58 23.8 811.55 23.8 810.09L 23.8 804.66L 13 804.66zM 47.37 818.34L 47.37 830.64L 4.17 830.64L 4.17 761.53L 47.37 761.53L 47.37 774.78L 51.54 774.78L 51.54 757.97C 51.54 754.62 48.84 751.89 45.55 751.89L 6 751.89C 2.69 751.89 0 754.62 0 757.97L 0 835.81C 0 839.15 2.69 841.89 6 841.89L 45.55 841.89C 48.84 841.89 51.54 839.15 51.54 835.81L 51.54 818.34L 47.37 818.34L 47.37 818.34z"/>
</g>
</svg>