<svg 
  xmlns="http://www.w3.org/2000/svg" 
  version="1.1" 
  width="100" 
  height="100" 
  viewBox="0 0 60.61296 60.61296">
  <g>
    <title>Layer 1</title>
    <path 
      stroke-width="0.45166" 
      fill="#000000"  
      id="path20" 
      d="m30.53232,0.22583c-16.75664,0 -30.30649,13.54984 -30.30649,30.30648c0,16.75664 13.54985,30.30649 30.30649,30.30649c16.75664,0 30.30648,-13.54985 30.30648,-30.30649c0,-16.66632 -13.36917,-30.30648 -30.30648,-30.30648" 
    />
    <path 
      stroke-width="0.45166" 
      fill="#ffffff"  
      id="path22" 
      d="m39.56555,7.67823l-8.98806,29.80967l-0.04524,0.0452l-0.0903,-0.0452l-8.98807,-29.80967l-11.6077,38.1654l2.16797,0c0,0 1.44533,-6.63941 3.83913,-10.61403c1.30982,-2.16798 3.29713,-3.92946 5.96193,-3.8843c1.89698,0.0452 3.52296,1.08399 5.55543,3.92945c0.45167,0.63233 0.99367,1.67115 1.53566,2.6648c0.85814,1.67115 1.58081,3.38747 1.58081,3.38747c0,0 1.89698,-4.33595 3.11646,-6.05227c2.03249,-2.84546 3.65847,-3.88428 5.55545,-3.92945c2.6648,-0.0452 4.69726,1.71631 5.96193,3.8843c2.3938,3.97462 3.83912,10.61403 3.83912,10.61403l2.16798,0l-11.5625,-38.1654z" 
    />
  </g>
</svg>
