<svg width="350" height="50" xmlns="http://www.w3.org/2000/svg" clip-rule="evenodd" fill-rule="evenodd" stroke-linejoin="round" stroke-miterlimit="1.41421" viewBox="0 0 500 77" preserveAspectRatio="xMidYMid meet">
	<g>
		<title>
			Layer 1
		</title>
		<g id="svg_6">
			<path d="m33.18788,53.70797c0.68792,1.72819 0.4698,3.94295 0.13423,5.28523c-0.58725,2.38255 -2.19798,4.81543 -6.96308,4.81543c-4.46308,0 -7.1812,-2.58389 -7.1812,-6.4765l0,-6.92952l-19.17783,0l0,5.50335c0,15.93958 12.53354,20.755 25.97312,20.755c12.91945,0 23.55701,-4.39597 25.25164,-16.32548c0.87248,-6.17449 0.2349,-10.21811 -0.06711,-11.71139c-3.02013,-14.96642 -30.13419,-19.4295 -32.16438,-27.80197c-0.28188,-1.2349 -0.30537,-2.5151 -0.06711,-3.75838c0.50336,-2.29865 2.06376,-4.79865 6.52684,-4.79865c4.19463,0 6.62751,2.58389 6.62751,6.4765l0,4.42952l17.83555,0l0,-5.03355c0,-15.57045 -13.97649,-18.00333 -24.07715,-18.00333c-12.7181,0 -23.10399,4.2114 -24.99997,15.87246c-0.50336,3.18792 -0.58725,6.04026 0.16779,9.63086c3.10402,14.5973 28.48989,18.82548 32.18116,28.07043" id="svg_2" />
			<path d="m76.50997,2.41609l-13.25502,71.45963l19.31205,0l9.78187,-64.8489l0.40268,0l9.51341,64.8489l19.21138,0l-13.17112,-71.47641l-31.79526,0.01678l0.00001,0zm107.96965,0l-8.80871,54.6308l-0.41946,0l-8.79193,-54.6308l-29.14425,0l-1.57718,71.45963l17.88588,0l0.43624,-64.24488l0.40268,0l11.92951,64.24488l18.13756,0l11.94629,-64.2281l0.38591,0l0.45302,64.2281l17.8691,0l-1.57718,-71.47641l-29.12748,0.01678z" id="svg_3" />
			<path d="m265.51978,53.57374c0.68792,1.72819 0.4698,3.94295 0.13423,5.28523c-0.58725,2.38255 -2.19798,4.81543 -6.96308,4.81543c-4.46308,0 -7.1812,-2.58389 -7.1812,-6.4765l0,-6.92952l-19.17783,0l0,5.50335c0,15.93958 12.53354,20.755 25.97312,20.755c12.91945,0 23.55701,-4.39597 25.25164,-16.32548c0.87248,-6.17449 0.2349,-10.21811 -0.06711,-11.71139c-3.02013,-14.96642 -30.13419,-19.4295 -32.16438,-27.80197c-0.28188,-1.2349 -0.30537,-2.5151 -0.06711,-3.75838c0.50336,-2.29865 2.06376,-4.79865 6.52684,-4.79865c4.19463,0 6.62751,2.58389 6.62751,6.4765l0,4.42952l17.83555,0l0,-5.03355c0,-15.57045 -13.97649,-18.00333 -24.07715,-18.00333c-12.7181,0 -23.10399,4.2114 -24.99997,15.87246c-0.50336,3.18792 -0.58725,6.04026 0.16779,9.63086c3.10402,14.5973 28.48989,18.82548 32.18116,28.07043" id="svg_4" />
			<path d="m325.50291,63.17104c4.96644,0 6.49328,-3.42281 6.84563,-5.16778c0.15101,-0.77181 0.16779,-1.81208 0.16779,-2.7349l0,-52.85228l18.08722,0l0,51.22476c0.00336,1.56711 -0.05201,3.13422 -0.16779,4.69798c-1.25839,13.33891 -11.79529,17.66776 -24.93285,17.66776c-13.15434,0 -23.69124,-4.32885 -24.94963,-17.66776c-0.05034,-0.7047 -0.18456,-3.38926 -0.16779,-4.69798l0,-51.24154l18.08722,0l0,52.85228c-0.01678,0.9396 0.01678,1.97986 0.16779,2.75167c0.33557,1.74496 1.87919,5.16778 6.86241,5.16778m87.38243,-60.75495l0.97315,56.09053l-0.38591,0l-16.44293,-56.09053l-26.51003,0l0,70.7046l17.56709,0l-0.97315,-58.03683l0.38591,0l17.6342,58.03683l25.45298,0l0,-70.7046l-17.70132,0l0.00001,0zm61.66099,60.01669c5.16778,0 6.97986,-3.27181 7.29865,-5.20134c0.15101,-0.78859 0.16779,-1.7953 0.16779,-2.68456l0,-10.40267l-7.3322,0l0,-10.40267l25.31876,0l0,19.16105c0,1.34228 -0.03356,2.31543 -0.25168,4.69798c-1.1745,13.02012 -12.46643,17.66776 -25.13419,17.66776s-23.94292,-4.64764 -25.13419,-17.66776c-0.20134,-2.38255 -0.25168,-3.3557 -0.25168,-4.69798l0,-30.06707c0,-1.27517 0.16779,-3.52349 0.30201,-4.69798c1.59396,-13.37246 12.41609,-17.66776 25.08386,-17.66776s23.77513,4.26174 25.08386,17.65098c0.2349,2.28188 0.16779,4.69798 0.16779,4.69798l0,2.39933l-18.02011,0l0,-4.01006s0,-1.67785 -0.21812,-2.71812c-0.33557,-1.57718 -1.67785,-5.20134 -7.14764,-5.20134c-5.20134,0 -6.72818,3.43959 -7.11408,5.20134c-0.21812,0.9396 -0.30201,2.21476 -0.30201,3.37248l0,32.66774c0,0.90604 0.03356,1.91275 0.16779,2.71812c0.33557,1.91275 2.14765,5.18456 7.31543,5.18456" id="svg_5" />
		</g>
	</g>
</svg>
